<svg width="25" height="24" viewBox="0 0 25 24" fill="none" xmlns="http://www.w3.org/2000/svg">
<g clip-path="url(#clip0_3950_1036)">
<path d="M21.6875 1.875H20.5625V0H18.6875V1.875H6.3125V0H4.4375V1.875H3.3125C1.76169 1.875 0.5 3.13669 0.5 4.6875V21.1875C0.5 22.7383 1.76169 24 3.3125 24H21.6875C23.2383 24 24.5 22.7383 24.5 21.1875V4.6875C24.5 3.13669 23.2383 1.875 21.6875 1.875ZM22.625 21.1875C22.625 21.7044 22.2044 22.125 21.6875 22.125H3.3125C2.79556 22.125 2.375 21.7044 2.375 21.1875V8.8125H22.625V21.1875ZM22.625 6.9375H2.375V4.6875C2.375 4.17056 2.79556 3.75 3.3125 3.75H4.4375V5.625H6.3125V3.75H18.6875V5.625H20.5625V3.75H21.6875C22.2044 3.75 22.625 4.17056 22.625 4.6875V6.9375Z" fill="#5A5C5F"/>
<path d="M4.0625 10.7812H5.9375V12.6562H4.0625V10.7812ZM7.8125 10.7812H9.6875V12.6562H7.8125V10.7812ZM11.5625 10.7812H13.4375V12.6562H11.5625V10.7812ZM15.3125 10.7812H17.1875V12.6562H15.3125V10.7812ZM19.0625 10.7812H20.9375V12.6562H19.0625V10.7812ZM4.0625 14.5312H5.9375V16.4062H4.0625V14.5312ZM7.8125 14.5312H9.6875V16.4062H7.8125V14.5312ZM11.5625 14.5312H13.4375V16.4062H11.5625V14.5312ZM15.3125 14.5312H17.1875V16.4062H15.3125V14.5312ZM4.0625 18.2812H5.9375V20.1562H4.0625V18.2812ZM7.8125 18.2812H9.6875V20.1562H7.8125V18.2812ZM11.5625 18.2812H13.4375V20.1562H11.5625V18.2812ZM15.3125 18.2812H17.1875V20.1562H15.3125V18.2812ZM19.0625 14.5312H20.9375V16.4062H19.0625V14.5312Z" fill="#5A5C5F"/>
</g>
<defs>
<clipPath id="clip0_3950_1036">
<rect width="24" height="24" fill="white" transform="translate(0.5)"/>
</clipPath>
</defs>
</svg>
