<svg width="143" height="610" viewBox="0 0 143 610" fill="none" xmlns="http://www.w3.org/2000/svg">
<mask id="path-1-outside-1_3934_578" maskUnits="userSpaceOnUse" x="-7.00003" y="-7.00001" width="157" height="624" fill="black">
<rect fill="white" x="-7.00003" y="-7.00001" width="157" height="624"/>
<path d="M143 590.186L143 609.471L0.729661 609.471L0.729659 555.75C0.729657 525.25 16.8654 507.146 43.4304 507.146C63.1082 507.146 77.2762 516.985 82.9828 534.695L143 505.769L143 527.218L86.7216 553.783L86.7216 590.186L143 590.186ZM18.0461 590.186L69.6019 590.186L69.6019 555.554C69.6019 537.647 59.9598 527.414 43.6272 527.414C27.0979 527.414 18.0461 538.04 18.0461 555.75L18.0461 590.186ZM143 350.649L143 437.428L0.729654 437.428L0.72965 350.649L18.4397 350.649L18.4397 418.144L62.9114 418.144L62.9114 357.34L80.0311 357.34L80.0311 418.144L125.093 418.144L125.093 350.649L143 350.649ZM143 260.13L143 279.414L0.729647 279.414L0.729646 260.13L110.728 187.322L0.729643 187.322L0.729642 168.038L143 168.038L143 187.322L33.0012 260.13L143 260.13ZM18.4396 105.389L0.729639 105.389L0.729634 0.506467L18.4396 0.506466L18.4396 43.2072L143 43.2072L143 62.4915L18.4396 62.4915L18.4396 105.389Z"/>
</mask>
<path d="M143 590.186L143 609.471L0.729661 609.471L0.729659 555.75C0.729657 525.25 16.8654 507.146 43.4304 507.146C63.1082 507.146 77.2762 516.985 82.9828 534.695L143 505.769L143 527.218L86.7216 553.783L86.7216 590.186L143 590.186ZM18.0461 590.186L69.6019 590.186L69.6019 555.554C69.6019 537.647 59.9598 527.414 43.6272 527.414C27.0979 527.414 18.0461 538.04 18.0461 555.75L18.0461 590.186ZM143 350.649L143 437.428L0.729654 437.428L0.72965 350.649L18.4397 350.649L18.4397 418.144L62.9114 418.144L62.9114 357.34L80.0311 357.34L80.0311 418.144L125.093 418.144L125.093 350.649L143 350.649ZM143 260.13L143 279.414L0.729647 279.414L0.729646 260.13L110.728 187.322L0.729643 187.322L0.729642 168.038L143 168.038L143 187.322L33.0012 260.13L143 260.13ZM18.4396 105.389L0.729639 105.389L0.729634 0.506467L18.4396 0.506466L18.4396 43.2072L143 43.2072L143 62.4915L18.4396 62.4915L18.4396 105.389Z" fill="#3B46F1" fill-opacity="0.05"/>
<path d="M143 590.186L150 590.186L150 583.186L143 583.186L143 590.186ZM143 609.471L143 616.471L150 616.471L150 609.471L143 609.471ZM0.729659 609.471L-6.27034 609.471L-6.27034 616.471L0.72966 616.471L0.729659 609.471ZM82.9828 534.695L76.3201 536.842L78.7843 544.489L86.022 541.001L82.9828 534.695ZM143 505.769L150 505.769L150 494.624L139.961 499.463L143 505.769ZM143 527.218L145.988 533.548L150 531.654L150 527.218L143 527.218ZM86.7216 553.783L83.7335 547.452L79.7216 549.346L79.7216 553.783L86.7216 553.783ZM86.7216 590.186L79.7216 590.186L79.7216 597.186L86.7216 597.186L86.7216 590.186ZM18.0461 590.186L11.0461 590.186L11.0461 597.186L18.0461 597.186L18.0461 590.186ZM69.6019 590.186L69.6019 597.186L76.6019 597.186L76.6019 590.186L69.6019 590.186ZM136 590.186L136 609.471L150 609.471L150 590.186L136 590.186ZM143 602.471L0.729659 602.471L0.72966 616.471L143 616.471L143 602.471ZM7.72966 609.471L7.72966 555.75L-6.27034 555.75L-6.27034 609.471L7.72966 609.471ZM7.72966 555.75C7.72966 541.675 11.4484 531.352 17.3679 524.641C23.1888 518.041 31.8248 514.146 43.4304 514.146L43.4304 500.146C28.471 500.146 15.7567 505.303 6.8684 515.38C-1.92121 525.346 -6.27034 539.325 -6.27034 555.75L7.72966 555.75ZM43.4304 514.146C52.0931 514.146 59.0978 516.302 64.4471 520.025C69.7708 523.73 73.8845 529.283 76.3201 536.842L89.6454 532.548C86.3745 522.397 80.5509 514.176 72.4445 508.534C64.3637 502.91 54.4455 500.146 43.4304 500.146L43.4304 514.146ZM86.022 541.001L146.039 512.075L139.961 499.463L79.9436 528.389L86.022 541.001ZM136 505.769L136 527.218L150 527.218L150 505.769L136 505.769ZM140.012 520.887L83.7335 547.452L89.7096 560.113L145.988 533.548L140.012 520.887ZM79.7216 553.783L79.7216 590.186L93.7216 590.186L93.7216 553.783L79.7216 553.783ZM86.7216 597.186L143 597.186L143 583.186L86.7216 583.186L86.7216 597.186ZM18.0461 597.186L69.6019 597.186L69.6019 583.186L18.0461 583.186L18.0461 597.186ZM76.6019 590.186L76.6019 555.554L62.6019 555.554L62.6019 590.186L76.6019 590.186ZM76.6019 555.554C76.6019 545.393 73.8566 536.457 67.8697 530.007C61.8166 523.485 53.2929 520.414 43.6272 520.414L43.6272 534.414C50.2941 534.414 54.7577 536.459 57.6088 539.531C60.5261 542.674 62.6019 547.807 62.6019 555.554L76.6019 555.554ZM43.6272 520.414C33.7968 520.414 25.327 523.63 19.4063 530.291C13.5947 536.829 11.0461 545.78 11.0461 555.75L25.0461 555.75C25.0461 548.011 27.0234 542.794 29.87 539.592C32.6075 536.512 36.9283 534.414 43.6272 534.414L43.6272 520.414ZM11.0461 555.75L11.0461 590.186L25.0461 590.186L25.0461 555.75L11.0461 555.75ZM143 350.649L150 350.649L150 343.649L143 343.649L143 350.649ZM143 437.428L143 444.428L150 444.428L150 437.428L143 437.428ZM0.729652 437.428L-6.27035 437.428L-6.27035 444.428L0.729652 444.428L0.729652 437.428ZM0.729648 350.649L0.729648 343.649L-6.27035 343.649L-6.27035 350.649L0.729648 350.649ZM18.4397 350.649L25.4397 350.649L25.4397 343.649L18.4397 343.649L18.4397 350.649ZM18.4397 418.144L11.4397 418.144L11.4397 425.144L18.4397 425.144L18.4397 418.144ZM62.9114 418.144L62.9114 425.144L69.9114 425.144L69.9114 418.144L62.9114 418.144ZM62.9114 357.34L62.9114 350.34L55.9114 350.34L55.9114 357.34L62.9114 357.34ZM80.0311 357.34L87.0311 357.34L87.0311 350.34L80.0311 350.34L80.0311 357.34ZM80.0311 418.144L73.0311 418.144L73.0311 425.144L80.0311 425.144L80.0311 418.144ZM125.093 418.144L125.093 425.144L132.093 425.144L132.093 418.144L125.093 418.144ZM125.093 350.649L125.093 343.649L118.093 343.649L118.093 350.649L125.093 350.649ZM136 350.649L136 437.428L150 437.428L150 350.649L136 350.649ZM143 430.428L0.729651 430.428L0.729652 444.428L143 444.428L143 430.428ZM7.72965 437.428L7.72965 350.649L-6.27035 350.649L-6.27035 437.428L7.72965 437.428ZM0.729648 357.649L18.4397 357.649L18.4397 343.649L0.729648 343.649L0.729648 357.649ZM11.4397 350.649L11.4397 418.144L25.4397 418.144L25.4397 350.649L11.4397 350.649ZM18.4397 425.144L62.9114 425.144L62.9114 411.144L18.4397 411.144L18.4397 425.144ZM69.9114 418.144L69.9114 357.34L55.9114 357.34L55.9114 418.144L69.9114 418.144ZM62.9114 364.34L80.0311 364.34L80.0311 350.34L62.9114 350.34L62.9114 364.34ZM73.0311 357.34L73.0311 418.144L87.0311 418.144L87.0311 357.34L73.0311 357.34ZM80.0311 425.144L125.093 425.144L125.093 411.144L80.0311 411.144L80.0311 425.144ZM132.093 418.144L132.093 350.649L118.093 350.649L118.093 418.144L132.093 418.144ZM125.093 357.649L143 357.649L143 343.649L125.093 343.649L125.093 357.649ZM143 260.13L150 260.13L150 253.13L143 253.13L143 260.13ZM143 279.414L143 286.414L150 286.414L150 279.414L143 279.414ZM0.729645 279.414L-6.27036 279.414L-6.27035 286.414L0.729645 286.414L0.729645 279.414ZM0.729644 260.13L-3.13396 254.293L-6.27036 256.369L-6.27036 260.13L0.729644 260.13ZM110.728 187.322L114.592 193.16L133.987 180.322L110.728 180.322L110.728 187.322ZM0.729641 187.322L-6.27036 187.322L-6.27036 194.322L0.729641 194.322L0.729641 187.322ZM0.72964 168.038L0.72964 161.038L-6.27036 161.038L-6.27036 168.038L0.72964 168.038ZM143 168.038L150 168.038L150 161.038L143 161.038L143 168.038ZM143 187.322L146.864 193.16L150 191.084L150 187.322L143 187.322ZM33.0012 260.13L29.1376 254.293L9.74306 267.13L33.0012 267.13L33.0012 260.13ZM136 260.13L136 279.414L150 279.414L150 260.13L136 260.13ZM143 272.414L0.729645 272.414L0.729645 286.414L143 286.414L143 272.414ZM7.72964 279.414L7.72964 260.13L-6.27036 260.13L-6.27036 279.414L7.72964 279.414ZM4.59325 265.967L114.592 193.16L106.865 181.485L-3.13396 254.293L4.59325 265.967ZM110.728 180.322L0.729641 180.322L0.729641 194.322L110.728 194.322L110.728 180.322ZM7.72964 187.322L7.72964 168.038L-6.27036 168.038L-6.27036 187.322L7.72964 187.322ZM0.72964 175.038L143 175.038L143 161.038L0.72964 161.038L0.72964 175.038ZM136 168.038L136 187.322L150 187.322L150 168.038L136 168.038ZM139.136 181.485L29.1376 254.293L36.8648 265.967L146.864 193.16L139.136 181.485ZM33.0012 267.13L143 267.13L143 253.13L33.0012 253.13L33.0012 267.13ZM18.4396 105.389L18.4396 112.389L25.4396 112.389L25.4396 105.389L18.4396 105.389ZM0.729637 105.389L-6.27036 105.389L-6.27036 112.389L0.729638 112.389L0.729637 105.389ZM0.729633 0.506467L0.729632 -6.49353L-6.27037 -6.49353L-6.27037 0.506467L0.729633 0.506467ZM18.4396 0.506466L25.4396 0.506465L25.4396 -6.49353L18.4396 -6.49353L18.4396 0.506466ZM18.4396 43.2073L11.4396 43.2073L11.4396 50.2073L18.4396 50.2073L18.4396 43.2073ZM143 43.2073L150 43.2073L150 36.2073L143 36.2073L143 43.2073ZM143 62.4914L143 69.4914L150 69.4914L150 62.4914L143 62.4914ZM18.4396 62.4915L18.4396 55.4915L11.4396 55.4915L11.4396 62.4915L18.4396 62.4915ZM18.4396 98.389L0.729637 98.389L0.729638 112.389L18.4396 112.389L18.4396 98.389ZM7.72964 105.389L7.72963 0.506466L-6.27037 0.506467L-6.27036 105.389L7.72964 105.389ZM0.729633 7.50647L18.4396 7.50647L18.4396 -6.49353L0.729632 -6.49353L0.729633 7.50647ZM11.4396 0.506466L11.4396 43.2073L25.4396 43.2073L25.4396 0.506465L11.4396 0.506466ZM18.4396 50.2073L143 50.2073L143 36.2073L18.4396 36.2073L18.4396 50.2073ZM136 43.2073L136 62.4914L150 62.4914L150 43.2073L136 43.2073ZM143 55.4914L18.4396 55.4915L18.4396 69.4915L143 69.4914L143 55.4914ZM11.4396 62.4915L11.4396 105.389L25.4396 105.389L25.4396 62.4915L11.4396 62.4915Z" fill="#3B46F1" fill-opacity="0.05" mask="url(#path-1-outside-1_3934_578)"/>
</svg>
